<svg xmlns="http://www.w3.org/2000/svg" viewBox="0 0 32 32" width="32" height="32">
  <path
    d="M12 6.5 L22.5 6.5 A4 4 0 0 1 26.5 10.5 L26.5 19 A4 4 0 0 1 22.5 23
       L12.5 23 L8.7 28.7 L9.2 19.5 L9.2 10.5 A4 4 0 0 1 12 6.5 Z"
    fill="none" stroke="oklch(0.6 0.152 255)" stroke-width="2.1" stroke-linecap="round" stroke-linejoin="round"
  />
  <rect x="10.1" y="16.8" width="2.6" height="5.5" rx="0.5" fill="oklch(0.6 0.152 255)" />
  <rect x="14.7" y="12.6" width="2.6" height="9.7" rx="0.5" fill="oklch(0.6 0.152 255)" />
  <rect x="19.3" y="8.8" width="2.6" height="13.5" rx="0.5" fill="oklch(0.6 0.152 255)" />
  <path d="M9.3 20.6c4.7-.9 9.9-3.1 13.9-8.6" stroke="oklch(0.6 0.152 255)" stroke-width="1.9" fill="none" stroke-linecap="round" />
  <path d="M20 10.2l4.6-.7 1 4.4" stroke="oklch(0.6 0.152 255)" stroke-width="1.9" fill="none" stroke-linecap="round" stroke-linejoin="round" />
</svg>
